<?xml version="1.0" encoding="UTF-8"?>
<svg xmlns="http://www.w3.org/2000/svg" viewBox="0 0 200 200" width="200" height="200">
  <defs>
    <linearGradient id="lion-gradient" x1="0%" y1="0%" x2="100%" y2="100%">
      <stop offset="0%" style="stop-color:#f7941d;stop-opacity:1" />
      <stop offset="50%" style="stop-color:#ed1c24;stop-opacity:1" />
      <stop offset="100%" style="stop-color:#662d91;stop-opacity:1" />
    </linearGradient>
  </defs>

  <!-- Lion Head Shape -->
  <path fill="url(#lion-gradient)" d="M100,10c-24.3,0-44,19.7-44,44c0,9.8,3.2,18.8,8.6,26.2c-10.8,4.8-19.6,13.6-24.4,24.2
    c-2.7-3.6-7.2-5.9-12.1-5.9c-8.3,0-15,6.7-15,15c0,3.9,1.5,7.4,4,10.1c-1.3,4.5-2,9.1-2,14c0,27.2,22,49.1,49.1,49.1
    c14.2,0,27.1-6.1,36.1-15.8c9,9.7,21.8,15.8,36.1,15.8c27.2,0,49.1-22,49.1-49.1c0-4.9-0.7-9.5-2-14
    c2.5-2.7,4-6.2,4-10.1c0-8.3-6.7-15-15-15c-5,0-9.4,2.3-12.1,5.9c-4.8-10.7-13.6-19.5-24.4-24.2
    c5.4-7.3,8.6-16.3,8.6-26.2C144,29.7,124.3,10,100,10z M85.5,30.2c-2.8,3.6-4.5,8.2-4.5,13c0,9.7,6.4,18,15.1,20.7
    c1.7-8.8,8-15.9,16.4-18.6C105.9,33.6,94.5,29.5,85.5,30.2z M114.5,30.2c-9-0.8-20.4,3.4-27,15.1
    c8.3,2.7,14.6,9.8,16.4,18.6c8.7-2.7,15.1-11,15.1-20.7C119,38.4,117.3,33.8,114.5,30.2z M78.7,68.9
    c-8,3.4-13.6,11.4-13.6,20.7c0,1.7,0.2,3.4,0.6,5c5.6-6.4,13.5-10.6,22.4-11.5C86,78.1,83,73,78.7,68.9z
    M100,74.1c-17.4,0-31.5,14.1-31.5,31.5c0,17.4,14.1,31.5,31.5,31.5c17.4,0,31.5-14.1,31.5-31.5C131.5,88.2,117.4,74.1,100,74.1z M121.3,68.9
    c-4.2,4-7.2,9.1-8.9,14.7c9,0.8,16.9,5.1,22.4,11.5c0.4-1.6,0.6-3.3,0.6-5C135.4,80.3,129.8,72.3,121.3,68.9z
    M100,82.2c13,0,23.5,10.5,23.5,23.5c0,13-10.5,23.5-23.5,23.5c-13,0-23.5-10.5-23.5-23.5C76.5,92.7,87,82.2,100,82.2z
    M89.8,88.3v35.1l26.4-17.6L89.8,88.3z M50.5,103.4c2.2,1.5,4,3.8,4.9,6.4c2.9-5.2,6.9-9.7,11.9-13
    c-2.9,1-5.6,2.4-8.1,4.2C56.4,102.5,53.3,103.3,50.5,103.4z M149.5,103.4c-2.8-0.2-5.8-1-8.7-2.5c-2.5-1.8-5.2-3.2-8.1-4.2
    c5,3.4,9,7.8,11.9,13C145.5,107.2,147.3,104.9,149.5,103.4z M52.8,120.1c0.1,1,0.2,2,0.5,3c1-3.4,2.4-6.8,4-9.8
    C55.1,114.8,53.5,117.3,52.8,120.1z M147.2,120.1c-0.7-2.8-2.3-5.3-4-6.9c1.6,3,3,6.4,4,9.8C147,122.1,147.1,121.1,147.2,120.1z M66,118.7
    c-4.3,3.9-7,9.5-7,15.8c0,11.8,9.6,21.3,21.3,21.3c7,0,13.1-3.4,17-8.5c-4.8-0.3-9.5-1.4-13.8-3.4C74.9,140.2,68.5,130.2,66,118.7z M134,118.7
    c-2.5,11.5-8.8,21.5-17.6,25.2c-4.3,2-9,3.1-13.8,3.4c3.9,5.2,10,8.5,17,8.5c11.8,0,21.3-9.6,21.3-21.3
    C141,128.1,138.3,122.6,134,118.7z M100,134.1c5.5,0,10.5-1.9,14.4-5.1c-4.1,9.4-12,16.6-21.7,19.7
    c4.2-2.7,7.7-6.2,10.4-10.5C101.9,133.9,101,134.1,100,134.1z"/>
</svg>
