<?xml version="1.0" encoding="UTF-8"?>
<svg xmlns="http://www.w3.org/2000/svg" viewBox="0 0 400 500">
  <defs>
    <linearGradient id="grad" x1="0%" y1="0%" x2="100%" y2="100%">
      <stop offset="0%" style="stop-color:#f7941d;stop-opacity:1" />
      <stop offset="50%" style="stop-color:#ed1c24;stop-opacity:1" />
      <stop offset="100%" style="stop-color:#662d91;stop-opacity:1" />
    </linearGradient>
  </defs>
  <path fill="url(#grad)" d="M200,20c-48.6,0-88,39.4-88,88c0,19.6,6.4,37.7,17.2,52.3c-21.5,9.5-39.2,27.1-48.8,48.5
    c-5.4-7.2-14.3-11.8-24.2-11.8c-16.6,0-30,13.4-30,30c0,7.8,3,14.9,7.9,20.2c-2.6,8.9-4,18.2-4,28c0,54.3,44,98.2,98.2,98.2
    c28.5,0,54.2-12.2,72.2-31.6c18,19.4,43.7,31.6,72.2,31.6c54.3,0,98.2-44,98.2-98.2c0-9.7-1.4-19.1-4-28
    c4.9-5.3,7.9-12.4,7.9-20.2c0-16.6-13.4-30-30-30c-9.9,0-18.8,4.6-24.2,11.8c-9.6-21.4-27.3-39-48.8-48.5
    c10.8-14.6,17.2-32.7,17.2-52.3C288,59.4,248.6,20,200,20z M170.9,60.4c-5.5,7.3-8.9,16.3-8.9,26.1c0,19.4,12.7,35.9,30.1,41.4
    c3.4-17.6,16-31.8,32.7-37.3C211.7,67.1,188.9,58.9,170.9,60.4z M229.1,60.4c-18-1.5-40.8,6.8-53.9,30.2
    c16.7,5.5,29.3,19.7,32.7,37.3c17.5-5.5,30.1-22,30.1-41.4C238,76.7,234.7,67.7,229.1,60.4z M157.5,137.9
    c-16,6.8-27.2,22.8-27.2,41.3c0,3.4,0.4,6.7,1.1,9.9c11.1-12.7,26.9-21.2,44.8-22.9C171.9,156.1,165.9,145.8,157.5,137.9z
    M200,148.2c-34.8,0-63,28.2-63,63c0,34.8,28.2,63,63,63c34.8,0,63-28.2,63-63C263,176.4,234.8,148.2,200,148.2z M242.5,137.9
    c-8.4,7.9-14.4,18.2-17.7,29.3c17.9,1.6,33.8,10.2,44.8,22.9c0.7-3.2,1.1-6.5,1.1-9.9C270.8,160.7,259.5,144.7,242.5,137.9z
    M200,164.4c25.9,0,46.9,21,46.9,46.9c0,25.9-21,46.9-46.9,46.9c-25.9,0-46.9-21-46.9-46.9C153.1,185.4,174.1,164.4,200,164.4z
    M179.6,176.6v70.2l52.7-35.1L179.6,176.6z M101.1,206.9c4.4,3,7.9,7.5,9.8,12.8c5.7-10.3,13.8-19.3,23.7-26
    c-5.8,1.9-11.2,4.8-16.2,8.3C112.8,205,106.6,206.6,101.1,206.9z M298.9,206.9c-5.5-0.4-11.6-1.9-17.3-4.9c-5-3.6-10.4-6.4-16.2-8.3
    c9.9,6.7,18,15.7,23.7,26C291,214.4,294.5,209.9,298.9,206.9z M105.6,240.1c0.2,2,0.5,4,1,5.9c2.1-6.9,4.8-13.5,8.1-19.6
    C110.1,229.6,107,234.5,105.6,240.1z M294.4,240.1c-1.4-5.6-4.5-10.5-8.1-13.7c3.3,6.1,6,12.7,8.1,19.6
    C294,244.1,294.3,242.1,294.4,240.1z M132.1,237.3c-8.5,7.8-13.9,19-13.9,31.5c0,23.5,19.1,42.6,42.6,42.6
    c13.9,0,26.2-6.7,34-17c-9.6-0.5-19-2.8-27.6-6.8C149.7,280.4,137.1,260.3,132.1,237.3z M267.9,237.3
    c-5,23-17.6,43.1-35.1,50.3c-8.7,4-18,6.3-27.6,6.8c7.8,10.3,20.1,17,34,17c23.5,0,42.6-19.1,42.6-42.6
    C281.8,256.3,276.4,245.1,267.9,237.3z M200,268.2c10.9,0,20.9-3.8,28.8-10.2c-8.2,18.7-23.9,33.1-43.4,39.4
    c8.3-5.4,15.4-12.5,20.7-21C203.9,267.8,202,268.2,200,268.2z"/>

  <!-- Text below the logo -->
  <text x="200" y="400" text-anchor="middle" font-family="Arial, sans-serif" font-size="32" font-weight="300" fill="#ffffff" letter-spacing="3">TYRELL DASILVA</text>
</svg>
